<svg width="14" height="14" viewBox="0 0 14 14" fill="none" xmlns="http://www.w3.org/2000/svg">
<g id="&#230;&#156;&#170;&#231;&#130;&#185;&#229;&#135;&#187;-&#230;&#138;&#165;&#229;&#145;&#138;">
<path id="&#232;&#183;&#175;&#229;&#190;&#132;" opacity="0.503218" d="M9.79571 1.82623H5.13029C4.71725 1.82623 4.3457 2.19778 4.3457 2.61081V2.9C4.3457 3.02385 4.46955 3.1477 4.5934 3.1477H9.79631C10.2093 3.1477 10.457 3.51925 10.457 3.8908V10.7452C10.457 10.8691 10.5809 10.9929 10.7047 10.9929H11.7785V3.6431C11.8194 1.62001 12.0256 1.82623 9.79571 1.82623Z" fill="white"/>
<path id="&#229;&#189;&#162;&#231;&#138;&#182;" fill-rule="evenodd" clip-rule="evenodd" d="M2.94232 3.92188H8.88833C9.50758 3.96276 9.63143 4.04573 9.59055 4.66498V11.4779C9.59055 11.9325 9.4667 12.1802 8.88833 12.1802H2.9838C2.28159 12.1802 2.19922 11.891 2.19922 11.3956V4.83031C2.19922 4.25194 2.2401 3.92188 2.94232 3.92188ZM8.10345 7.80263H3.56128C3.35506 7.80263 3.14824 7.6373 3.14824 7.3896C3.14824 7.1419 3.31358 6.97656 3.56128 6.97656H8.14494C8.35115 6.97656 8.55797 7.1419 8.55797 7.3896C8.55797 7.6373 8.30967 7.80263 8.10345 7.80263ZM8.10345 9.95009H3.56128C3.35506 9.95009 3.14824 9.78476 3.14824 9.53706C3.14824 9.28936 3.31358 9.12402 3.56128 9.12402H8.14494C8.35115 9.12402 8.55797 9.28936 8.55797 9.53706C8.55797 9.78476 8.30967 9.95009 8.10345 9.95009Z" fill="white"/>
</g>
</svg>
