<svg width="14" height="14" viewBox="0 0 14 14" fill="none" xmlns="http://www.w3.org/2000/svg">
<g id="&#230;&#156;&#170;&#231;&#130;&#185;&#229;&#135;&#187;-&#230;&#138;&#165;&#229;&#145;&#138;">
<path id="&#232;&#183;&#175;&#229;&#190;&#132;" opacity="0.503218" d="M9.79523 1.82525H5.1298C4.71677 1.82525 4.34521 2.1968 4.34521 2.60983V2.89902C4.34521 3.02287 4.46907 3.14672 4.59292 3.14672H9.79583C10.2089 3.14672 10.4566 3.51827 10.4566 3.88982V10.7443C10.4566 10.8681 10.5804 10.992 10.7043 10.992H11.778V3.64212C11.8189 1.61903 12.0251 1.82525 9.79523 1.82525Z" fill="#5334AB"/>
<path id="&#229;&#189;&#162;&#231;&#138;&#182;" fill-rule="evenodd" clip-rule="evenodd" d="M2.94134 3.92188H8.88736C9.50661 3.96276 9.63046 4.04573 9.58957 4.66498V11.4779C9.58957 11.9325 9.46572 12.1802 8.88736 12.1802H2.98283C2.28061 12.1802 2.19824 11.891 2.19824 11.3956V4.83031C2.19824 4.25194 2.23912 3.92188 2.94134 3.92188ZM8.10277 7.80332H3.56059C3.35438 7.80332 3.14756 7.63798 3.14756 7.39028C3.14756 7.14258 3.31289 6.97725 3.56059 6.97725H8.14425C8.35047 6.97725 8.55729 7.14258 8.55729 7.39028C8.55729 7.63798 8.30899 7.80332 8.10277 7.80332ZM8.10277 9.95025H3.56059C3.35438 9.95025 3.14756 9.78492 3.14756 9.53722C3.14756 9.28952 3.31289 9.12418 3.56059 9.12418H8.14425C8.35047 9.12418 8.55729 9.28952 8.55729 9.53722C8.55729 9.78492 8.30899 9.95025 8.10277 9.95025Z" fill="#5334AB"/>
</g>
</svg>
