<svg width="94" height="17" viewBox="0 0 94 17" fill="none" xmlns="http://www.w3.org/2000/svg">
<path d="M1.68417 10.1528L0 8.46065L8.42083 0L10.105 1.69213L1.68417 10.1528Z" fill="url(#paint0_linear_15057_38648)"/>
<path d="M15.1572 10.1528L6.73633 1.69213L8.42049 0L16.8413 8.46065L15.1572 10.1528Z" fill="url(#paint1_linear_15057_38648)"/>
<path d="M8.42066 16.9214L3.36816 11.845L5.05233 10.1528L10.1048 15.2292L8.42066 16.9214Z" fill="url(#paint2_linear_15057_38648)"/>
<path d="M5.05233 13.5371L3.36816 11.8449L8.42066 6.76855L10.1048 8.46068L5.05233 13.5371Z" fill="url(#paint3_linear_15057_38648)"/>
<path d="M8.42049 16.9213L6.73633 15.2292L15.1572 6.76855L16.8413 8.46068L8.42049 16.9213Z" fill="url(#paint4_linear_15057_38648)"/>
<path d="M24.1225 12.0299H22.1877V5.96976H19.9277V4.45471H26.3785V5.96976H24.1186V12.0299H24.1225Z" fill="#5334AB"/>
<path d="M32.5548 10.4047C32.5548 10.9478 32.402 11.3688 32.0965 11.6758C31.791 11.9827 31.372 12.1362 30.8315 12.1362H28.3601C27.8235 12.1362 27.4005 11.9827 27.095 11.6758C26.7895 11.3688 26.6367 10.9438 26.6367 10.4047V7.91373C26.6367 7.37068 26.7895 6.94961 27.095 6.64267C27.4005 6.33572 27.8196 6.18225 28.3601 6.18225H30.8315C31.3681 6.18225 31.791 6.33572 32.0965 6.64267C32.402 6.94961 32.5548 7.37461 32.5548 7.91373V10.4047ZM30.6748 8.07901C30.6748 7.79174 30.5299 7.64614 30.244 7.64614H28.9554C28.6695 7.64614 28.5246 7.79174 28.5246 8.07901V10.2434C28.5246 10.5306 28.6695 10.6762 28.9554 10.6762H30.244C30.5299 10.6762 30.6748 10.5306 30.6748 10.2434V8.07901Z" fill="#5334AB"/>
<path d="M35.6691 9.75531V12.0299H33.7891V4.45068H35.6691V8.29142H36.5307L37.7136 6.28841H39.7032L38.0896 9.05092L39.7032 12.0259H37.7136L36.4759 9.75138H35.6691V9.75531Z" fill="#5334AB"/>
<path d="M45.6637 11.9198C44.2811 12.0654 43.0239 12.1362 41.8998 12.1362C41.4141 12.1362 41.0225 11.9866 40.7287 11.6915C40.435 11.3964 40.2861 11.0029 40.2861 10.511V7.91373C40.2861 7.37068 40.4389 6.94961 40.7444 6.64267C41.0499 6.33572 41.469 6.18225 42.0095 6.18225H44.1597C44.6963 6.18225 45.1193 6.33572 45.4248 6.64267C45.7303 6.94961 45.883 7.37461 45.883 7.91373V9.91674H42.174V10.3496C42.174 10.4559 42.2092 10.5464 42.2797 10.6211C42.3502 10.692 42.4403 10.7274 42.55 10.7274C43.2589 10.7274 44.3007 10.6723 45.6676 10.566V11.9198H45.6637ZM42.597 7.53595C42.311 7.53595 42.1661 7.68156 42.1661 7.96882V8.56304H43.9952V7.96882C43.9952 7.68156 43.8503 7.53595 43.5644 7.53595H42.597Z" fill="#5334AB"/>
<path d="M50.278 7.75236C49.898 7.75236 49.4672 7.82319 48.9894 7.9688V12.026H47.1094V6.29241H48.7779L48.8836 6.83546C49.2205 6.61116 49.5651 6.44588 49.9215 6.34356C50.278 6.23731 50.5756 6.18616 50.8185 6.18616H51.3041C51.7898 6.18616 52.1815 6.33569 52.4752 6.63083C52.769 6.92597 52.9178 7.31949 52.9178 7.81139V12.0338H51.0378V8.13801C51.0378 8.02782 51.0025 7.94125 50.932 7.86648C50.8615 7.79565 50.7715 7.7563 50.6618 7.7563H50.278V7.75236Z" fill="#5334AB"/>
<path d="M57.8023 12.0299H53.9326V10.5149H54.9V5.96976H53.9326V4.45471H57.8023V5.96976H56.8349V10.5149H57.8023V12.0299Z" fill="#5334AB"/>
<path d="M62.0944 7.75236C61.7144 7.75236 61.2836 7.82319 60.8058 7.9688V12.026H58.9258V6.29241H60.5943L60.7 6.83546C61.0369 6.61116 61.3815 6.44588 61.738 6.34356C62.0944 6.23731 62.392 6.18616 62.6349 6.18616H63.1205C63.6062 6.18616 63.9979 6.33569 64.2916 6.63083C64.5854 6.92597 64.7342 7.31949 64.7342 7.81139V12.0338H62.8542V8.13801C62.8542 8.02782 62.819 7.94125 62.7485 7.86648C62.678 7.79565 62.5879 7.7563 62.4782 7.7563H62.0944V7.75236Z" fill="#5334AB"/>
<path d="M65.7444 10.5148C67.2014 10.625 68.3451 10.6762 69.1872 10.6762C69.2929 10.6762 69.383 10.6407 69.4574 10.5699C69.5279 10.4991 69.5632 10.4086 69.5632 10.2984V9.9206H67.2523C66.7628 9.9206 66.375 9.77106 66.0813 9.47592C65.7875 9.18078 65.6387 8.78727 65.6387 8.29537V7.91759C65.6387 7.42569 65.7836 7.03217 66.0813 6.73703C66.375 6.4419 66.7667 6.29236 67.2523 6.29236H70.9066V7.70115H67.8947C67.7889 7.70115 67.6988 7.73657 67.6244 7.8074C67.5539 7.87824 67.5187 7.96875 67.5187 8.07893C67.5187 8.18912 67.5539 8.27569 67.6244 8.35046C67.6949 8.42129 67.785 8.46065 67.8947 8.46065H69.8295C70.3152 8.46065 70.7068 8.61018 71.0006 8.90532C71.2943 9.20046 71.4432 9.59398 71.4432 10.0859V10.5187C71.4432 11.0106 71.2943 11.4042 71.0006 11.6993C70.7068 11.9944 70.3152 12.144 69.8295 12.144C68.5605 12.144 67.1975 12.0731 65.7444 11.9275V10.5148Z" fill="#5334AB"/>
<path d="M74.7181 6.50883V12.0299H72.8381V7.96879H72.0312V6.50883H74.7181ZM72.8342 4.34448H74.7142V5.85953H72.8342V4.34448Z" fill="#5334AB"/>
<path d="M79.767 11.597C79.0698 11.7426 78.4627 11.8134 77.9379 11.8134H77.5619C77.0762 11.8134 76.6846 11.6639 76.3908 11.3687C76.0971 11.0736 75.9482 10.6801 75.9482 10.1882V8.02384C75.9482 7.48078 76.101 7.05972 76.4065 6.75278C76.712 6.44583 77.1311 6.29236 77.6716 6.29236H81.6509V12.3525C81.6509 12.8444 81.5021 13.238 81.2083 13.5331C80.9146 13.8282 80.5229 13.9778 80.0372 13.9778C78.9132 13.9778 77.6559 13.9069 76.2733 13.7613V12.3525C77.6442 12.4627 78.6821 12.5139 79.391 12.5139C79.4967 12.5139 79.5868 12.4785 79.6612 12.4037C79.7317 12.3329 79.767 12.2424 79.767 12.1322V11.597ZM78.4745 10.3535C78.9249 10.3535 79.3557 10.3181 79.7631 10.2433V7.75231H78.2591C77.9732 7.75231 77.8282 7.89791 77.8282 8.18518V9.97176C77.8282 10.0819 77.8635 10.1685 77.934 10.2433C78.0045 10.3141 78.0946 10.3535 78.2042 10.3535H78.4745Z" fill="#5334AB"/>
<path d="M84.8663 6.40254C85.5635 6.25693 86.1706 6.1861 86.6954 6.1861H87.1811C87.6667 6.1861 88.0584 6.33564 88.3522 6.63078C88.6459 6.92591 88.7947 7.31943 88.7947 7.81133V12.0338H86.9147V8.02383C86.9147 7.91758 86.8795 7.82707 86.809 7.7523C86.7385 7.68147 86.6484 7.64605 86.5387 7.64605H86.1627C85.8886 7.64605 85.6418 7.66179 85.4147 7.68934C85.1875 7.71689 85.0073 7.7405 84.8702 7.75624V12.0298H82.9902V4.45068H84.8702V6.40254H84.8663Z" fill="#5334AB"/>
<path d="M93.9997 12.0299C93.3026 12.1007 92.625 12.1361 91.9552 12.1361C91.4696 12.1361 91.0779 11.9866 90.7841 11.6915C90.4904 11.3963 90.3416 11.0028 90.3416 10.5109V7.75234H89.6953V6.29239H90.3416L90.557 4.99377H92.2255V6.29239H93.5689V7.75234H92.2255V10.2433C92.2255 10.3535 92.2607 10.4401 92.3312 10.5148C92.4017 10.5857 92.4918 10.625 92.6015 10.625H93.9997V12.0299Z" fill="#5334AB"/>
<defs>
<linearGradient id="paint0_linear_15057_38648" x1="0.842083" y1="9.30671" x2="9.30264" y2="0.885972" gradientUnits="userSpaceOnUse">
<stop stop-color="#4421A5"/>
<stop offset="1" stop-color="#4421A5" stop-opacity="0"/>
</linearGradient>
<linearGradient id="paint1_linear_15057_38648" x1="6.73633" y1="5.07639" x2="16.8413" y2="5.07639" gradientUnits="userSpaceOnUse">
<stop stop-color="#4421A5"/>
<stop offset="1" stop-color="#4421A5" stop-opacity="0"/>
</linearGradient>
<linearGradient id="paint2_linear_15057_38648" x1="6.7365" y1="16.9214" x2="6.7365" y2="10.1528" gradientUnits="userSpaceOnUse">
<stop stop-color="#4421A5"/>
<stop offset="1" stop-color="#4421A5" stop-opacity="0"/>
</linearGradient>
<linearGradient id="paint3_linear_15057_38648" x1="6.7365" y1="13.5371" x2="6.7365" y2="6.76855" gradientUnits="userSpaceOnUse">
<stop stop-color="#4421A5"/>
<stop offset="1" stop-color="#4421A5" stop-opacity="0.46"/>
</linearGradient>
<linearGradient id="paint4_linear_15057_38648" x1="11.7888" y1="6.76855" x2="11.7888" y2="16.9213" gradientUnits="userSpaceOnUse">
<stop stop-color="#4421A5"/>
<stop offset="1" stop-color="#4421A5" stop-opacity="0"/>
</linearGradient>
</defs>
</svg>
