<svg width="94" height="17" viewBox="0 0 94 17" fill="none" xmlns="http://www.w3.org/2000/svg">
<path d="M1.68417 10.1528L0 8.46065L8.42083 0L10.105 1.69213L1.68417 10.1528Z" fill="url(#paint0_linear_15057_39012)"/>
<path d="M15.1572 10.1528L6.73633 1.69213L8.42049 0L16.8413 8.46065L15.1572 10.1528Z" fill="url(#paint1_linear_15057_39012)"/>
<path d="M8.42066 16.9214L3.36816 11.845L5.05233 10.1528L10.1048 15.2292L8.42066 16.9214Z" fill="url(#paint2_linear_15057_39012)"/>
<path d="M5.05233 13.5371L3.36816 11.8449L8.42066 6.76855L10.1048 8.46068L5.05233 13.5371Z" fill="url(#paint3_linear_15057_39012)"/>
<path d="M8.42049 16.9213L6.73633 15.2292L15.1572 6.76855L16.8413 8.46068L8.42049 16.9213Z" fill="url(#paint4_linear_15057_39012)"/>
<path d="M24.1225 12.0298H22.1877V5.96964H19.9277V4.45459H26.3785V5.96964H24.1186V12.0298H24.1225Z" fill="white"/>
<path d="M32.5548 10.4046C32.5548 10.9476 32.402 11.3687 32.0965 11.6756C31.791 11.9826 31.372 12.1361 30.8315 12.1361H28.3601C27.8235 12.1361 27.4005 11.9826 27.095 11.6756C26.7895 11.3687 26.6367 10.9437 26.6367 10.4046V7.91361C26.6367 7.37055 26.7895 6.94949 27.095 6.64255C27.4005 6.3356 27.8196 6.18213 28.3601 6.18213H30.8315C31.3681 6.18213 31.791 6.3356 32.0965 6.64255C32.402 6.94949 32.5548 7.37449 32.5548 7.91361V10.4046ZM30.6748 8.07889C30.6748 7.79162 30.5299 7.64602 30.244 7.64602H28.9554C28.6695 7.64602 28.5246 7.79162 28.5246 8.07889V10.2432C28.5246 10.5305 28.6695 10.6761 28.9554 10.6761H30.244C30.5299 10.6761 30.6748 10.5305 30.6748 10.2432V8.07889Z" fill="white"/>
<path d="M35.6691 9.75531V12.0299H33.7891V4.45068H35.6691V8.29142H36.5307L37.7136 6.28841H39.7032L38.0896 9.05092L39.7032 12.0259H37.7136L36.4759 9.75138H35.6691V9.75531Z" fill="white"/>
<path d="M45.6637 11.9196C44.2811 12.0652 43.0239 12.1361 41.8998 12.1361C41.4141 12.1361 41.0225 11.9865 40.7287 11.6914C40.435 11.3962 40.2861 11.0027 40.2861 10.5108V7.91361C40.2861 7.37055 40.4389 6.94949 40.7444 6.64255C41.0499 6.3356 41.469 6.18213 42.0095 6.18213H44.1597C44.6963 6.18213 45.1193 6.3356 45.4248 6.64255C45.7303 6.94949 45.883 7.37449 45.883 7.91361V9.91662H42.174V10.3495C42.174 10.4557 42.2092 10.5462 42.2797 10.621C42.3502 10.6919 42.4403 10.7273 42.55 10.7273C43.2589 10.7273 44.3007 10.6722 45.6676 10.5659V11.9196H45.6637ZM42.597 7.53583C42.311 7.53583 42.1661 7.68143 42.1661 7.9687V8.56292H43.9952V7.9687C43.9952 7.68143 43.8503 7.53583 43.5644 7.53583H42.597Z" fill="white"/>
<path d="M50.278 7.75224C49.898 7.75224 49.4672 7.82307 48.9894 7.96867V12.0259H47.1094V6.29228H48.7779L48.8836 6.83534C49.2205 6.61104 49.5651 6.44576 49.9215 6.34344C50.278 6.23719 50.5756 6.18604 50.8185 6.18604H51.3041C51.7898 6.18604 52.1815 6.33557 52.4752 6.63071C52.769 6.92585 52.9178 7.31937 52.9178 7.81127V12.0337H51.0378V8.13789C51.0378 8.0277 51.0025 7.94113 50.932 7.86636C50.8615 7.79553 50.7715 7.75617 50.6618 7.75617H50.278V7.75224Z" fill="white"/>
<path d="M57.8023 12.0298H53.9326V10.5148H54.9V5.96964H53.9326V4.45459H57.8023V5.96964H56.8349V10.5148H57.8023V12.0298Z" fill="white"/>
<path d="M62.0944 7.75224C61.7144 7.75224 61.2836 7.82307 60.8058 7.96867V12.0259H58.9258V6.29228H60.5943L60.7 6.83534C61.0369 6.61104 61.3815 6.44576 61.738 6.34344C62.0944 6.23719 62.392 6.18604 62.6349 6.18604H63.1205C63.6062 6.18604 63.9979 6.33557 64.2916 6.63071C64.5854 6.92585 64.7342 7.31937 64.7342 7.81127V12.0337H62.8542V8.13789C62.8542 8.0277 62.819 7.94113 62.7485 7.86636C62.678 7.79553 62.5879 7.75617 62.4782 7.75617H62.0944V7.75224Z" fill="white"/>
<path d="M65.7444 10.5149C67.2014 10.6251 68.3451 10.6763 69.1872 10.6763C69.2929 10.6763 69.383 10.6409 69.4574 10.57C69.5279 10.4992 69.5632 10.4087 69.5632 10.2985V9.92072H67.2523C66.7628 9.92072 66.375 9.77118 66.0813 9.47605C65.7875 9.18091 65.6387 8.78739 65.6387 8.29549V7.91771C65.6387 7.42581 65.7836 7.0323 66.0813 6.73716C66.375 6.44202 66.7667 6.29248 67.2523 6.29248H70.9066V7.70128H67.8947C67.7889 7.70128 67.6988 7.73669 67.6244 7.80753C67.5539 7.87836 67.5187 7.96887 67.5187 8.07905C67.5187 8.18924 67.5539 8.27581 67.6244 8.35058C67.6949 8.42142 67.785 8.46077 67.8947 8.46077H69.8295C70.3152 8.46077 70.7068 8.6103 71.0006 8.90544C71.2943 9.20058 71.4432 9.5941 71.4432 10.086V10.5189C71.4432 11.0108 71.2943 11.4043 71.0006 11.6994C70.7068 11.9946 70.3152 12.1441 69.8295 12.1441C68.5605 12.1441 67.1975 12.0733 65.7444 11.9277V10.5149Z" fill="white"/>
<path d="M74.7181 6.50883V12.0299H72.8381V7.96879H72.0312V6.50883H74.7181ZM72.8342 4.34448H74.7142V5.85953H72.8342V4.34448Z" fill="white"/>
<path d="M79.767 11.5971C79.0698 11.7427 78.4627 11.8135 77.9379 11.8135H77.5619C77.0762 11.8135 76.6846 11.664 76.3908 11.3689C76.0971 11.0737 75.9482 10.6802 75.9482 10.1883V8.02396C75.9482 7.48091 76.101 7.05984 76.4065 6.7529C76.712 6.44595 77.1311 6.29248 77.6716 6.29248H81.6509V12.3527C81.6509 12.8446 81.5021 13.2381 81.2083 13.5332C80.9146 13.8284 80.5229 13.9779 80.0372 13.9779C78.9132 13.9779 77.6559 13.9071 76.2733 13.7615V12.3527C77.6442 12.4629 78.6821 12.514 79.391 12.514C79.4967 12.514 79.5868 12.4786 79.6612 12.4038C79.7317 12.333 79.767 12.2425 79.767 12.1323V11.5971ZM78.4745 10.3536C78.9249 10.3536 79.3557 10.3182 79.7631 10.2434V7.75243H78.2591C77.9732 7.75243 77.8282 7.89804 77.8282 8.1853V9.97188C77.8282 10.0821 77.8635 10.1686 77.934 10.2434C78.0045 10.3142 78.0946 10.3536 78.2042 10.3536H78.4745Z" fill="white"/>
<path d="M84.8663 6.40254C85.5635 6.25693 86.1706 6.1861 86.6954 6.1861H87.1811C87.6667 6.1861 88.0584 6.33564 88.3522 6.63078C88.6459 6.92591 88.7947 7.31943 88.7947 7.81133V12.0338H86.9147V8.02383C86.9147 7.91758 86.8795 7.82707 86.809 7.7523C86.7385 7.68147 86.6484 7.64605 86.5387 7.64605H86.1627C85.8886 7.64605 85.6418 7.66179 85.4147 7.68934C85.1875 7.71689 85.0073 7.7405 84.8702 7.75624V12.0298H82.9902V4.45068H84.8702V6.40254H84.8663Z" fill="white"/>
<path d="M93.9997 12.03C93.3026 12.1008 92.625 12.1363 91.9552 12.1363C91.4696 12.1363 91.0779 11.9867 90.7841 11.6916C90.4904 11.3964 90.3416 11.0029 90.3416 10.511V7.75246H89.6953V6.29251H90.3416L90.557 4.9939H92.2255V6.29251H93.5689V7.75246H92.2255V10.2434C92.2255 10.3536 92.2607 10.4402 92.3312 10.515C92.4017 10.5858 92.4918 10.6251 92.6015 10.6251H93.9997V12.03Z" fill="white"/>
<defs>
<linearGradient id="paint0_linear_15057_39012" x1="0.842083" y1="9.30671" x2="9.30264" y2="0.885972" gradientUnits="userSpaceOnUse">
<stop stop-color="white"/>
<stop offset="1" stop-color="white" stop-opacity="0"/>
</linearGradient>
<linearGradient id="paint1_linear_15057_39012" x1="6.73633" y1="5.07639" x2="16.8413" y2="5.07639" gradientUnits="userSpaceOnUse">
<stop stop-color="white"/>
<stop offset="1" stop-color="white" stop-opacity="0"/>
</linearGradient>
<linearGradient id="paint2_linear_15057_39012" x1="6.7365" y1="16.9214" x2="6.7365" y2="10.1528" gradientUnits="userSpaceOnUse">
<stop stop-color="white"/>
<stop offset="1" stop-color="white" stop-opacity="0"/>
</linearGradient>
<linearGradient id="paint3_linear_15057_39012" x1="6.7365" y1="13.5371" x2="6.7365" y2="6.76855" gradientUnits="userSpaceOnUse">
<stop stop-color="white"/>
<stop offset="1" stop-color="white" stop-opacity="0.46"/>
</linearGradient>
<linearGradient id="paint4_linear_15057_39012" x1="11.7888" y1="6.76855" x2="11.7888" y2="16.9213" gradientUnits="userSpaceOnUse">
<stop stop-color="white"/>
<stop offset="1" stop-color="white" stop-opacity="0"/>
</linearGradient>
</defs>
</svg>
