<svg width="96" height="112" viewBox="0 0 96 112" fill="none" xmlns="http://www.w3.org/2000/svg">
<path fill-rule="evenodd" clip-rule="evenodd" d="M48 0L96 27.9999V84.0001L48 112L0 84.0001V27.9999L48 0ZM0.90161 28.5261V83.4739L48 110.948L95.0984 83.4739V28.5261L48 1.05213L0.90161 28.5261Z" fill="#7BD281" fill-opacity="0.18"/>
<path fill-rule="evenodd" clip-rule="evenodd" d="M47.9995 6.93409L90.0559 31.4669V80.5328L47.9995 105.066L5.94318 80.5328V31.4669L47.9995 6.93409ZM6.84479 31.9931V80.0066L47.9995 104.013L89.1543 80.0066V31.9931L47.9995 7.98622L6.84479 31.9931Z" fill="#7BD281" fill-opacity="0.18"/>
<path fill-rule="evenodd" clip-rule="evenodd" d="M48.0001 13.8687L84.1128 34.9344V77.066L48.0001 98.1317L11.8874 77.066V34.9344L48.0001 13.8687ZM12.789 35.4606V76.5398L48.0001 97.0796L83.2112 76.5398V35.4606L48.0001 14.9208L12.789 35.4606Z" fill="#7BD281" fill-opacity="0.18"/>
<path fill-rule="evenodd" clip-rule="evenodd" d="M47.9996 20.8028L78.1686 38.4013V73.5988L47.9996 91.1973L17.8305 73.5988V38.4013L47.9996 20.8028ZM18.7321 38.9275V73.0726L47.9996 90.1452L77.267 73.0726V38.9275L47.9996 21.8549L18.7321 38.9275Z" fill="#7BD281" fill-opacity="0.18"/>
<path fill-rule="evenodd" clip-rule="evenodd" d="M48.0001 27.7369L72.2255 41.8683V70.1315L48.0001 84.2629L23.7747 70.1315V41.8683L48.0001 27.7369ZM24.6763 42.3945V69.6053L48.0001 83.2108L71.3239 69.6053V42.3945L48.0001 28.789L24.6763 42.3945Z" fill="#7BD281" fill-opacity="0.18"/>
<path fill-rule="evenodd" clip-rule="evenodd" d="M47.9996 34.6715L66.2814 45.3358V66.6647L47.9996 77.329L29.7179 66.6647V45.3358L47.9996 34.6715ZM30.6195 45.862V66.1385L47.9996 76.2769L65.3798 66.1385V45.862L47.9996 35.7236L30.6195 45.862Z" fill="#7BD281" fill-opacity="0.18"/>
<path fill-rule="evenodd" clip-rule="evenodd" d="M48.0002 41.6055L60.3383 48.8028V63.1974L48.0002 70.3946L35.6621 63.1974V48.8028L48.0002 41.6055ZM36.5637 49.3289V62.6712L48.0002 69.3425L59.4367 62.6712V49.3289L48.0002 42.6577L36.5637 49.3289Z" fill="#7BD281" fill-opacity="0.18"/>
<path fill-rule="evenodd" clip-rule="evenodd" d="M47.9997 48.5396L54.3941 52.2697V59.7302L47.9997 63.4603L41.6052 59.7302V52.2697L47.9997 48.5396ZM42.5068 52.7959V59.204L47.9997 62.4081L53.4925 59.204V52.7959L47.9997 49.5918L42.5068 52.7959Z" fill="#7BD281" fill-opacity="0.18"/>
</svg>
