<svg width="14" height="14" viewBox="0 0 14 14" fill="none" xmlns="http://www.w3.org/2000/svg">
<path d="M7.7819 8.56007C7.17911 8.55823 6.60174 8.31701 6.1768 7.88947C6.1455 7.86106 6.12029 7.8266 6.10271 7.78816C6.08513 7.74972 6.07553 7.7081 6.07451 7.66585C6.07348 7.62359 6.08105 7.58156 6.09676 7.54231C6.11246 7.50307 6.13597 7.46742 6.16586 7.43753C6.19575 7.40764 6.2314 7.38413 6.27064 7.36843C6.30989 7.35273 6.35192 7.34516 6.39417 7.34618C6.43643 7.3472 6.47804 7.3568 6.51648 7.37438C6.55492 7.39196 6.58939 7.41717 6.6178 7.44847C6.92846 7.75384 7.34664 7.92496 7.78225 7.92496C8.21786 7.92496 8.63604 7.75384 8.9467 7.44847L11.1867 5.20847C11.4955 4.89964 11.669 4.48078 11.669 4.04402C11.669 3.60727 11.4955 3.1884 11.1867 2.87957C10.8779 2.57074 10.459 2.39724 10.0223 2.39724C9.5855 2.39724 9.16663 2.57074 8.8578 2.87957L6.9678 4.76957C6.93939 4.80087 6.90492 4.82608 6.86648 4.84367C6.82804 4.86125 6.78643 4.87084 6.74417 4.87187C6.70192 4.87289 6.65989 4.86532 6.62064 4.84962C6.5814 4.83392 6.54575 4.81041 6.51586 4.78052C6.48597 4.75063 6.46246 4.71498 6.44676 4.67573C6.43105 4.63649 6.42348 4.59446 6.42451 4.5522C6.42553 4.50994 6.43513 4.46833 6.45271 4.42989C6.47029 4.39145 6.4955 4.35698 6.5268 4.32857L8.4168 2.43857C8.84018 2.0152 9.4144 1.77734 10.0132 1.77734C10.6119 1.77734 11.1861 2.0152 11.6095 2.43857C12.0329 2.86195 12.2707 3.43618 12.2707 4.03492C12.2707 4.63367 12.0329 5.2079 11.6095 5.63127L9.3695 7.87127C9.16587 8.08832 8.91997 8.2614 8.64694 8.37986C8.37391 8.49832 8.07952 8.55965 7.7819 8.56007ZM4.095 12.2505C3.64774 12.2498 3.2107 12.1167 2.83888 11.8682C2.46706 11.6196 2.1771 11.2665 2.0055 10.8535C1.8339 10.4405 1.78833 9.98592 1.87452 9.54705C1.96072 9.10818 2.17483 8.70462 2.4899 8.38717L4.7299 6.14717C4.93953 5.93753 5.1884 5.77123 5.46231 5.65777C5.73621 5.54431 6.02978 5.48591 6.32625 5.48591C6.62272 5.48591 6.91629 5.54431 7.1902 5.65777C7.4641 5.77123 7.71297 5.93753 7.9226 6.14717C7.9539 6.17558 7.97911 6.21005 7.99669 6.24849C8.01428 6.28693 8.02387 6.32854 8.0249 6.3708C8.02592 6.41306 8.01835 6.45509 8.00265 6.49433C7.98694 6.53358 7.96344 6.56923 7.93355 6.59912C7.90366 6.62901 7.86801 6.65252 7.82876 6.66822C7.78951 6.68392 7.74749 6.69149 7.70523 6.69047C7.66297 6.68944 7.62136 6.67985 7.58292 6.66227C7.54448 6.64468 7.51001 6.61947 7.4816 6.58817C7.17094 6.2828 6.75276 6.11169 6.31715 6.11169C5.88154 6.11169 5.46336 6.2828 5.1527 6.58817L2.9127 8.82817C2.60387 9.13701 2.43037 9.55587 2.43037 9.99262C2.43037 10.4294 2.60387 10.8482 2.9127 11.1571C3.22153 11.4659 3.6404 11.6394 4.07715 11.6394C4.51391 11.6394 4.93277 11.4659 5.2416 11.1571L7.1316 9.26707C7.19098 9.21318 7.26881 9.18421 7.34897 9.18615C7.42914 9.18809 7.50548 9.2208 7.56218 9.2775C7.61887 9.3342 7.65158 9.41054 7.65353 9.4907C7.65547 9.57086 7.62649 9.6487 7.5726 9.70807L5.6826 11.5981C5.2562 12.0104 4.68812 12.2438 4.095 12.2505Z" fill="#5334AB"/>
<path d="M4.0948 12.4221C3.7726 12.4253 3.45313 12.3628 3.15586 12.2385C2.8586 12.1142 2.58978 11.9306 2.3658 11.699C2.13742 11.4725 1.95599 11.2032 1.83191 10.9065C1.70782 10.6098 1.64352 10.2916 1.6427 9.96995C1.63949 9.64775 1.70195 9.32828 1.82627 9.03102C1.95059 8.73376 2.13417 8.46493 2.3658 8.24095L4.6058 6.00095C4.83223 5.77258 5.10152 5.59115 5.39822 5.46706C5.69492 5.34298 6.0132 5.27868 6.3348 5.27785C6.65699 5.27469 6.97645 5.33717 7.2737 5.46148C7.57096 5.5858 7.83979 5.76935 8.0638 6.00095C8.10908 6.04716 8.14477 6.10188 8.1688 6.16195C8.19283 6.22202 8.20472 6.28626 8.2038 6.35095C8.19898 6.48029 8.14951 6.60397 8.0638 6.70095C8.0191 6.74699 7.96562 6.78359 7.90652 6.80859C7.84743 6.83358 7.78391 6.84646 7.71975 6.84646C7.65558 6.84646 7.59207 6.83358 7.53297 6.80859C7.47387 6.78359 7.42039 6.74699 7.3757 6.70095C7.09724 6.42944 6.72371 6.27748 6.3348 6.27748C5.94588 6.27748 5.57235 6.42944 5.2939 6.70095L3.0539 8.94095C2.91837 9.07794 2.81145 9.24052 2.73934 9.41921C2.66724 9.59791 2.63139 9.78917 2.6339 9.98185C2.63699 10.3695 2.7871 10.7415 3.0539 11.0228C3.19088 11.1583 3.35346 11.2652 3.53216 11.3373C3.71086 11.4094 3.90211 11.4453 4.0948 11.4428C4.48244 11.4397 4.85446 11.2895 5.1357 11.0228L7.0257 9.13275C7.11694 9.0415 7.2407 8.99024 7.36975 8.99024C7.49879 8.99024 7.62255 9.0415 7.7138 9.13275C7.80504 9.224 7.85631 9.34776 7.85631 9.4768C7.85631 9.60585 7.80504 9.7296 7.7138 9.82085L5.8238 11.7109C5.36365 12.1664 4.74231 12.422 4.0948 12.4221V12.4221ZM6.3173 5.66915C6.04384 5.66565 5.77261 5.71868 5.52062 5.82492C5.26862 5.93116 5.0413 6.08833 4.8529 6.28655L2.6129 8.52655C2.22193 8.9141 2.00001 9.44047 1.9955 9.99095C1.99203 10.2644 2.04508 10.5356 2.15132 10.7876C2.25756 11.0396 2.4147 11.2669 2.6129 11.4554C3.00044 11.8463 3.52682 12.0682 4.0773 12.0728C4.35075 12.0763 4.62198 12.0232 4.87397 11.917C5.12597 11.8107 5.35329 11.6536 5.5417 11.4554L7.4317 9.56535C7.45509 9.54196 7.46823 9.51023 7.46823 9.47715C7.46823 9.44407 7.45509 9.41234 7.4317 9.38895C7.4083 9.36556 7.37658 9.35242 7.3435 9.35242C7.31041 9.35242 7.27869 9.36556 7.2553 9.38895L5.3653 11.279C5.02333 11.6206 4.55966 11.8123 4.07631 11.812C3.59295 11.8118 3.12949 11.6195 2.7879 11.2776C2.4463 10.9356 2.25454 10.4719 2.2548 9.98856C2.25506 9.50521 2.44733 9.04175 2.7893 8.70015L5.0293 6.46015C5.37547 6.12187 5.84028 5.93247 6.3243 5.93247C6.80831 5.93247 7.27312 6.12187 7.6193 6.46015C7.63033 6.47267 7.6439 6.48269 7.65911 6.48955C7.67432 6.49642 7.69081 6.49997 7.7075 6.49997C7.72418 6.49997 7.74067 6.49642 7.75588 6.48955C7.77109 6.48269 7.78466 6.47267 7.7957 6.46015C7.8183 6.43635 7.8309 6.40478 7.8309 6.37195C7.8309 6.33913 7.8183 6.30756 7.7957 6.28375C7.60401 6.08617 7.37403 5.92976 7.11984 5.82409C6.86564 5.71841 6.59256 5.66569 6.3173 5.66915V5.66915ZM7.7817 8.73865C7.4595 8.74186 7.14003 8.6794 6.84276 8.55508C6.5455 8.43076 6.27668 8.24718 6.0527 8.01555C5.96145 7.9243 5.91019 7.80055 5.91019 7.6715C5.91019 7.54246 5.96145 7.4187 6.0527 7.32745C6.14394 7.2362 6.2677 7.18494 6.39675 7.18494C6.52579 7.18494 6.64955 7.2362 6.7408 7.32745C7.01925 7.59896 7.39278 7.75093 7.7817 7.75093C8.17061 7.75093 8.54414 7.59896 8.8226 7.32745L11.0626 5.08745C11.1981 4.95046 11.305 4.78789 11.3772 4.60919C11.4493 4.43049 11.4851 4.23923 11.4826 4.04655C11.4795 3.65891 11.3294 3.28689 11.0626 3.00565C10.9256 2.87013 10.763 2.7632 10.5843 2.6911C10.4056 2.61899 10.2144 2.58315 10.0217 2.58565C9.63405 2.58875 9.26204 2.73886 8.9808 3.00565L7.0908 4.89565C6.99843 4.98653 6.87375 5.03699 6.74419 5.03594C6.61462 5.03489 6.49077 4.98241 6.3999 4.89005C6.30902 4.79769 6.25856 4.67301 6.25961 4.54344C6.26066 4.41387 6.31313 4.29003 6.4055 4.19915L8.2955 2.30915C8.52193 2.08078 8.79122 1.89935 9.08792 1.77527C9.38462 1.65118 9.7029 1.58688 10.0245 1.58605C10.3467 1.58289 10.6661 1.64537 10.9634 1.76968C11.2607 1.894 11.5295 2.07756 11.7535 2.30915C12.2107 2.76831 12.4673 3.38986 12.4673 4.0378C12.4673 4.68574 12.2107 5.3073 11.7535 5.76645L9.5135 8.00645C9.28706 8.23482 9.01777 8.41625 8.72107 8.54034C8.42437 8.66442 8.1061 8.72872 7.7845 8.72955L7.7817 8.73865ZM6.388 7.55355C6.35533 7.55417 6.324 7.5666 6.2998 7.58855C6.28728 7.59959 6.27726 7.61316 6.2704 7.62837C6.26353 7.64357 6.25998 7.66007 6.25998 7.67675C6.25998 7.69344 6.26353 7.70993 6.2704 7.72514C6.27726 7.74034 6.28728 7.75392 6.2998 7.76495C6.68734 8.15592 7.21372 8.37784 7.7642 8.38235C8.03765 8.38586 8.30888 8.33283 8.56087 8.22658C8.81287 8.12034 9.04019 7.96318 9.2286 7.76495L11.4686 5.52495C11.7593 5.23333 11.9574 4.86234 12.038 4.45855C12.1186 4.05475 12.0782 3.63614 11.9218 3.25524C11.7653 2.87435 11.4999 2.54814 11.1588 2.31756C10.8176 2.08697 10.4159 1.96229 10.0042 1.95915C9.73071 1.95601 9.45952 2.00942 9.20764 2.11603C8.95577 2.22263 8.72863 2.38013 8.5405 2.57865L6.6505 4.46865C6.63891 4.48023 6.62973 4.49398 6.62346 4.50912C6.61719 4.52425 6.61396 4.54047 6.61396 4.55685C6.61396 4.57323 6.61719 4.58945 6.62346 4.60459C6.62973 4.61972 6.63891 4.63347 6.6505 4.64505C6.66208 4.65663 6.67583 4.66582 6.69096 4.67209C6.7061 4.67836 6.72232 4.68159 6.7387 4.68159C6.75508 4.68159 6.7713 4.67836 6.78643 4.67209C6.80156 4.66582 6.81531 4.65663 6.8269 4.64505L8.7169 2.75505C9.0584 2.41355 9.52158 2.22169 10.0045 2.22169C10.4875 2.22169 10.9507 2.41355 11.2922 2.75505C11.6337 3.09656 11.8256 3.55974 11.8256 4.0427C11.8256 4.52566 11.6337 4.98885 11.2922 5.33035L9.0522 7.57035C8.70602 7.90863 8.24121 8.09803 7.7572 8.09803C7.27318 8.09803 6.80837 7.90863 6.4622 7.57035C6.4622 7.55285 6.4272 7.55285 6.3922 7.55285L6.388 7.55355Z" fill="#5334AB"/>
</svg>
