<svg width="97" height="112" viewBox="0 0 97 112" fill="none" xmlns="http://www.w3.org/2000/svg">
<path fill-rule="evenodd" clip-rule="evenodd" d="M48.5 0L97 27.9999V84.0001L48.5 112L0 84.0001V27.9999L48.5 0ZM0.911002 28.5261V83.4739L48.5 110.948L96.089 83.4739V28.5261L48.5 1.05213L0.911002 28.5261Z" fill="#F2BB2E" fill-opacity="0.18"/>
<path fill-rule="evenodd" clip-rule="evenodd" d="M48.4995 6.93409L90.994 31.4669V80.5328L48.4995 105.066L6.00509 80.5328V31.4669L48.4995 6.93409ZM6.91609 31.9931V80.0066L48.4995 104.013L90.083 80.0066V31.9931L48.4995 7.98622L6.91609 31.9931Z" fill="#F2BB2E" fill-opacity="0.18"/>
<path fill-rule="evenodd" clip-rule="evenodd" d="M48.5001 13.8687L84.9889 34.9344V77.066L48.5001 98.1317L12.0112 77.066V34.9344L48.5001 13.8687ZM12.9222 35.4606V76.5398L48.5001 97.0796L84.0779 76.5398V35.4606L48.5001 14.9208L12.9222 35.4606Z" fill="#F2BB2E" fill-opacity="0.18"/>
<path fill-rule="evenodd" clip-rule="evenodd" d="M48.4996 20.8028L78.9829 38.4013V73.5988L48.4996 91.1973L18.0163 73.5988V38.4013L48.4996 20.8028ZM18.9273 38.9275V73.0726L48.4996 90.1452L78.0719 73.0726V38.9275L48.4996 21.8549L18.9273 38.9275Z" fill="#F2BB2E" fill-opacity="0.18"/>
<path fill-rule="evenodd" clip-rule="evenodd" d="M48.5001 27.7369L72.9779 41.8683V70.1315L48.5001 84.2629L24.0224 70.1315V41.8683L48.5001 27.7369ZM24.9334 42.3945V69.6053L48.5001 83.2108L72.0669 69.6053V42.3945L48.5001 28.789L24.9334 42.3945Z" fill="#F2BB2E" fill-opacity="0.18"/>
<path fill-rule="evenodd" clip-rule="evenodd" d="M48.4996 34.6715L66.9718 45.3358V66.6647L48.4996 77.329L30.0274 66.6647V45.3358L48.4996 34.6715ZM30.9384 45.862V66.1385L48.4996 76.2769L66.0608 66.1385V45.862L48.4996 35.7236L30.9384 45.862Z" fill="#F2BB2E" fill-opacity="0.18"/>
<path fill-rule="evenodd" clip-rule="evenodd" d="M48.5002 41.6055L60.9668 48.8028V63.1974L48.5002 70.3946L36.0335 63.1974V48.8028L48.5002 41.6055ZM36.9445 49.3289V62.6712L48.5002 69.3425L60.0558 62.6712V49.3289L48.5002 42.6577L36.9445 49.3289Z" fill="#F2BB2E" fill-opacity="0.18"/>
<path fill-rule="evenodd" clip-rule="evenodd" d="M48.4997 48.5396L54.9608 52.2697V59.7302L48.4997 63.4603L42.0386 59.7302V52.2697L48.4997 48.5396ZM42.9496 52.7959V59.204L48.4997 62.4081L54.0497 59.204V52.7959L48.4997 49.5918L42.9496 52.7959Z" fill="#F2BB2E" fill-opacity="0.18"/>
</svg>
